<svg xmlns="http://www.w3.org/2000/svg" width="139.661" height="97.148" viewBox="0 0 139.661 97.148">
  <path id="Path_220" data-name="Path 220" d="M587.908,464.741a95.658,95.658,0,0,0,11.5-12.242c3.031-3.894,6.006-8.057,6.674-12.625.693-3.945-1.13-7.9-4.906-10.657a14.425,14.425,0,0,0-13.527-1.17c-4.383,1.914-7.034,5.5-6.9,9.349.354,4.209,3.212,8.066,7.763,10.474,9.093,5.013,23.293,4.751,32.985.936,10.916-4.3,16.556-15.54,7.98-23.236-1.784-1.6-4.752.188-4.305,1.915,1.177,4.842,7.1,8.148,13.526,7.544s11.113-4.909,10.706-9.823l-3.855,1.715a37.328,37.328,0,0,0,29.28-2.39,25.493,25.493,0,0,0,5.479-4.03c1.887-1.873,5.057-3.084,7.624-4.434l18.5-9.727c2.721-1.431.134-4.84-2.61-3.4l-16.753,8.809c-2.792,1.468-5.6,2.918-8.376,4.4-1.984,1.063-3.2,2.778-5.009,4.04-6.975,4.775-16.945,6.058-25.6,3.3a3.345,3.345,0,0,0-2.56.035,1.978,1.978,0,0,0-1.3,1.68c.46,2.955-2.315,5.634-6.2,5.984s-7.4-1.761-7.863-4.716l-4.305,1.915c5.533,4.965,1.849,12.58-4.525,15.911-7.128,3.726-17.661,4.372-25.7,2.056a14.354,14.354,0,0,1-8.926-6.233c-1.606-2.686-.781-5.852,2.05-7.869a8.014,8.014,0,0,1,9.013-.073c2.7,2.1,3.854,5.083,3.072,7.961-.829,3.943-3.693,7.579-6.357,10.946a89.157,89.157,0,0,1-10.289,10.9c-2.133,1.921,1.547,4.69,3.7,2.748Z" transform="translate(-419.296 -554.794) rotate(17)" fill="#17b1bf"/>
</svg>
