<svg xmlns="http://www.w3.org/2000/svg" width="87.159" height="65.034" viewBox="0 0 87.159 65.034">
  <g id="Group_257" data-name="Group 257" transform="translate(756.852 -2781.48) rotate(-39)">
    <path id="Path_432" data-name="Path 432" d="M522.1,404.07a17.891,17.891,0,0,0,10.678-4.052,17.145,17.145,0,0,0,6.032-9.754,18.331,18.331,0,0,0-1.452-11.6,16.974,16.974,0,0,0-8.315-8.065,18.15,18.15,0,0,0-11.471-1.208c-.482.111-.957.246-1.427.4-.429.141-.245.822.187.68a17.194,17.194,0,0,1,11.1.233,16.432,16.432,0,0,1,8.6,7,17.633,17.633,0,0,1,2.311,11.031,16.3,16.3,0,0,1-4.975,9.819,17.348,17.348,0,0,1-9.9,4.717c-.456.051-.914.082-1.373.095A.353.353,0,0,0,522.1,404.07Z" transform="translate(-2830.235 1357.622)" fill="#17b1bf" stroke="#17b1bf" stroke-width="3"/>
    <path id="Path_433" data-name="Path 433" d="M481.309,338l-6.33,5.382a2.48,2.48,0,0,0-1.017,1.281,1.424,1.424,0,0,0,.494,1.29,6.6,6.6,0,0,0,1.426.91l1.84,1.012,4.088,2.248c.4.219.754-.39.356-.609-2.215-1.218-4.464-2.391-6.651-3.659-.331-.192-.852-.5-.872-.938-.021-.467.616-.852.923-1.113l2.942-2.5,3.3-2.8c.346-.294-.155-.791-.5-.5Z" transform="translate(-2796.188 1382.825)" fill="#17b1bf" stroke="#17b1bf" stroke-width="3"/>
    <path id="Path_434" data-name="Path 434" d="M304.863,264.429a22.08,22.08,0,0,0-12.35,6.793,21.158,21.158,0,0,0-5.689,12.96A22.623,22.623,0,0,0,290.6,298.1a20.948,20.948,0,0,0,11.553,8.421,22.4,22.4,0,0,0,14.225-.5c.569-.219,1.127-.465,1.674-.735.5-.246.158-1.046-.346-.8a21.219,21.219,0,0,1-13.61,1.63,20.279,20.279,0,0,1-11.719-7.064,21.761,21.761,0,0,1-4.727-13.081,20.117,20.117,0,0,1,4.385-12.857,21.41,21.41,0,0,1,11.29-7.473c.549-.142,1.1-.258,1.662-.353s.432-.955-.122-.861Z" transform="translate(-2642.305 1445.114)" fill="#17b1bf" stroke="#17b1bf" stroke-width="3"/>
    <path id="Path_435" data-name="Path 435" d="M449.633,459.712l6.807-7.668a3.06,3.06,0,0,0,1.021-1.741,1.757,1.757,0,0,0-.827-1.492,8.152,8.152,0,0,0-1.9-.866l-2.423-.919-5.383-2.042c-.524-.2-.854.606-.33.805,2.917,1.106,5.867,2.152,8.758,3.324.438.177,1.128.467,1.227,1,.106.567-.606,1.147-.936,1.519l-3.164,3.564-3.547,4c-.372.419.325.94.7.523Z" transform="translate(-2771.781 1298.611)" fill="#17b1bf" stroke="#17b1bf" stroke-width="3"/>
  </g>
</svg>
