<svg width="1024" height="724" viewBox="0 0 1024 724" fill="none" xmlns="http://www.w3.org/2000/svg">
<path d="M397.083 541.907H383.108V535.008H397.083C399.72 535.008 401.844 534.48 403.455 533.426C405.096 532.371 406.282 530.906 407.015 529.031C407.776 527.156 408.157 525.018 408.157 522.615C408.157 520.418 407.776 518.353 407.015 516.419C406.282 514.485 405.096 512.933 403.455 511.761C401.844 510.56 399.72 509.959 397.083 509.959H384.778V567H376.692V503.016H397.083C401.214 503.016 404.7 503.851 407.542 505.521C410.384 507.19 412.537 509.505 414.002 512.464C415.496 515.394 416.243 518.748 416.243 522.527C416.243 526.629 415.496 530.13 414.002 533.03C412.537 535.931 410.384 538.143 407.542 539.666C404.7 541.16 401.214 541.907 397.083 541.907ZM426.658 503.016H444.544C448.704 503.016 452.19 503.748 455.003 505.213C457.845 506.678 459.983 508.846 461.419 511.717C462.884 514.559 463.616 518.06 463.616 522.22C463.616 525.149 463.133 527.83 462.166 530.262C461.199 532.664 459.793 534.715 457.947 536.414C456.102 538.084 453.86 539.329 451.224 540.149L449.026 541.072H433.074L432.986 534.173H444.456C446.917 534.173 448.968 533.646 450.608 532.591C452.249 531.507 453.479 530.057 454.3 528.24C455.12 526.424 455.53 524.417 455.53 522.22C455.53 519.759 455.164 517.605 454.432 515.76C453.699 513.914 452.527 512.493 450.916 511.497C449.334 510.472 447.21 509.959 444.544 509.959H434.744V567H426.658V503.016ZM457.376 567L444.632 537.996L453.025 537.952L466.033 566.473V567H457.376ZM508.836 560.101V567H481.062V560.101H508.836ZM482.513 503.016V567H474.427V503.016H482.513ZM505.101 530.525V537.425H481.062V530.525H505.101ZM508.396 503.016V509.959H481.062V503.016H508.396ZM547.156 550.828C547.156 549.334 546.98 548.016 546.629 546.873C546.277 545.701 545.662 544.646 544.783 543.709C543.904 542.771 542.674 541.878 541.092 541.028C539.51 540.179 537.503 539.314 535.071 538.436C532.435 537.498 530.047 536.458 527.908 535.315C525.77 534.144 523.938 532.811 522.415 531.316C520.921 529.822 519.764 528.108 518.943 526.175C518.123 524.241 517.713 522.029 517.713 519.539C517.713 517.049 518.138 514.749 518.987 512.64C519.866 510.53 521.097 508.699 522.679 507.146C524.29 505.564 526.224 504.334 528.479 503.455C530.735 502.576 533.255 502.137 536.038 502.137C540.198 502.137 543.699 503.06 546.541 504.905C549.412 506.722 551.58 509.109 553.045 512.068C554.51 514.998 555.242 518.133 555.242 521.473H547.156C547.156 519.07 546.761 516.946 545.97 515.101C545.208 513.226 544.007 511.761 542.366 510.706C540.755 509.622 538.646 509.08 536.038 509.08C533.694 509.08 531.761 509.534 530.237 510.442C528.743 511.351 527.63 512.581 526.897 514.134C526.194 515.687 525.843 517.459 525.843 519.451C525.843 520.799 526.077 522.029 526.546 523.143C527.015 524.227 527.732 525.237 528.699 526.175C529.695 527.112 530.926 527.977 532.391 528.768C533.885 529.559 535.643 530.32 537.664 531.053C540.799 532.078 543.479 533.221 545.706 534.48C547.933 535.74 549.749 537.161 551.155 538.743C552.562 540.296 553.587 542.068 554.231 544.061C554.905 546.023 555.242 548.25 555.242 550.74C555.242 553.348 554.803 555.706 553.924 557.815C553.074 559.925 551.829 561.727 550.188 563.221C548.548 564.715 546.57 565.872 544.256 566.692C541.941 567.483 539.334 567.879 536.434 567.879C533.914 567.879 531.438 567.469 529.007 566.648C526.604 565.828 524.422 564.598 522.459 562.957C520.496 561.316 518.929 559.295 517.757 556.893C516.585 554.461 515.999 551.648 515.999 548.455H524.085C524.085 550.652 524.407 552.542 525.052 554.124C525.696 555.677 526.59 556.966 527.732 557.991C528.875 559.017 530.179 559.778 531.644 560.276C533.138 560.745 534.734 560.979 536.434 560.979C538.777 560.979 540.74 560.569 542.322 559.749C543.934 558.929 545.135 557.757 545.926 556.233C546.746 554.71 547.156 552.908 547.156 550.828ZM586.399 503.016V567H578.401V503.016H586.399ZM603.23 503.016V509.959H561.614V503.016H603.23ZM629.905 508.685L612.415 567H604.153L624.764 503.016H629.949L629.905 508.685ZM644.056 567L626.565 508.685L626.478 503.016H631.707L652.317 567H644.056ZM644.056 543.313V550.257H613.206V543.313H644.056Z" fill="#27627E"/>
<g clip-path="url(#clip0_106_3)">
<path d="M484.232 152.007C509.999 198.792 535.739 245.586 561.452 292.389C565.901 300.466 569.861 308.807 575.048 318.991H535.831C521.931 294.271 507.788 269.723 494.211 244.837C477.428 214.041 461.132 182.961 444.619 152.007H484.232Z" fill="#27627E"/>
<path d="M331 417.007C371.359 344.742 410.754 273.837 452.189 199.664L471.474 231.919C437.333 293.274 403.277 353.624 368.006 417.013" fill="#829DA9"/>
<path d="M694 334.525L675.817 366.939H470.557L487.981 334.525H694Z" fill="#489AAB"/>
<path d="M632.349 318.879H591.786L509.418 170.499H549.777L632.349 318.879Z" fill="#27627E"/>
<path d="M480.431 249.639L499.3 282.912C474.781 326.844 449.899 372.071 424.819 416.98H388.116C419.216 360.837 448.77 306.793 480.431 249.639Z" fill="#829DA9"/>
<path d="M458.875 386.243H621.756L604.702 416.993H442.692L458.875 386.243Z" fill="#489AAB"/>
</g>
<defs>
<clipPath id="clip0_106_3">
<rect width="363" height="265" fill="white" transform="translate(331 152)"/>
</clipPath>
</defs>
</svg>
