<svg xmlns="http://www.w3.org/2000/svg" xmlns:xlink="http://www.w3.org/1999/xlink" width="481" height="465" viewBox="0 0 481 465"><defs><filter id="a" x="-8.885" y="-6.147" width="498.892" height="482.696" filterUnits="userSpaceOnUse"><feOffset dy="3" input="SourceAlpha"/><feGaussianBlur stdDeviation="3" result="b"/><feFlood flood-opacity="0.161"/><feComposite operator="in" in2="b"/><feComposite in="SourceGraphic"/></filter><clipPath id="d"><rect width="481" height="465"/></clipPath></defs><g id="c" clip-path="url(#d)"><rect width="481" height="465" fill="#fff"/><g transform="translate(-1511 2081.364)"><g transform="translate(1511.115 -2081.511)"><g transform="matrix(1, 0, 0, 1, -0.11, 0.15)" filter="url(#a)"><rect width="480.892" height="464.696" rx="4" transform="translate(0.11 -0.15)" fill="#fff"/></g><text transform="translate(17.442 32.442)" fill="#1e2022" font-size="14" font-family="Poppins-Medium, Poppins" font-weight="500" letter-spacing="0.05em"><tspan x="0" y="0">Outstanding Customers</tspan></text><g transform="translate(17.442 71.013)"><text transform="translate(0 9)" fill="#1e2022" font-size="9" font-family="Poppins-Medium, Poppins" font-weight="500" letter-spacing="0.071em"><tspan x="0" y="0">Customer X</tspan></text><text transform="translate(421.511 11.492)" fill="#77838f" font-size="9" font-family="Poppins-Medium, Poppins" font-weight="500" letter-spacing="0.083em"><tspan x="-41.328" y="0">USD 303</tspan></text><g transform="translate(0 37.375)"><rect width="446.008" height="14.95" rx="6" transform="translate(0 13.704)" fill="#f2f2f2"/><rect width="237.954" height="14.95" rx="6" transform="translate(0 13.704)" fill="#eb0000"/><g transform="translate(208.054)"><rect width="61.046" height="42.358" rx="6" fill="#eb0000"/><text transform="translate(29.005 25.856)" fill="#fff" font-size="14" font-family="Poppins-Medium, Poppins" font-weight="500" letter-spacing="0.071em"><tspan x="-15.07" y="0">52%</tspan></text></g></g></g><g transform="translate(17.442 170.679)"><text transform="translate(0 11)" fill="#1e2022" font-size="10" font-family="Poppins-Medium, Poppins" font-weight="500" letter-spacing="0.071em"><tspan x="0" y="0">Customer Y</tspan></text><text transform="translate(422.511 11.492)" fill="#77838f" font-size="9" font-family="Poppins-Medium, Poppins" font-weight="500" letter-spacing="0.083em"><tspan x="-41.589" y="0">USD 256</tspan></text><g transform="translate(0 37.375)"><rect width="446.008" height="14.95" rx="6" transform="translate(0 13.704)" fill="#f2f2f2"/><rect width="176.908" height="14.95" rx="6" transform="translate(0 13.704)" fill="#ffa726"/><g transform="translate(147.008)"><rect width="61.046" height="42.358" rx="6" fill="#ffa726"/><text transform="translate(28.312 23.721)" fill="#fff" font-size="14" font-family="Poppins-Medium, Poppins" font-weight="500" letter-spacing="0.071em"><tspan x="-15.007" y="0">47%</tspan></text></g></g></g><g transform="translate(17.442 270.346)"><text transform="translate(0 11)" fill="#1e2022" font-size="10" font-family="Poppins-Medium, Poppins" font-weight="500" letter-spacing="0.071em"><tspan x="0" y="0">Customer z</tspan></text><text transform="translate(427.77 13.492)" fill="#77838f" font-size="10" font-family="Poppins-Medium, Poppins" font-weight="500" letter-spacing="0.083em"><tspan x="-39.147" y="0">USD 30</tspan></text><g transform="translate(0 37.375)"><rect width="446.008" height="14.95" rx="6" transform="translate(0 13.704)" fill="#f2f2f2"/><rect width="28.289" height="14.95" rx="6" transform="translate(0 13.704)" fill="#35c2fd"/><g transform="translate(14.446)"><rect width="48.046" height="33.358" rx="6" transform="translate(0 4.247)" fill="#35c2fd"/><text transform="translate(23.998 25.426)" fill="#fff" font-size="13" font-family="Poppins-Medium, Poppins" font-weight="500" letter-spacing="0.071em"><tspan x="-9.376" y="0">2%</tspan></text></g></g></g><g transform="translate(17.442 387.454)"><rect width="446.008" height="59.8" rx="6" fill="#f2f2f2"/><text transform="translate(17.442 32.442)" fill="#1e2022" font-size="14" font-family="Poppins-Medium, Poppins" font-weight="500" letter-spacing="0.071em"><tspan x="0" y="0">Total</tspan></text><text transform="translate(407.71 26.442)" fill="#77838f" font-size="9" font-family="Poppins-Regular, Poppins" letter-spacing="0.071em"><tspan x="-40.982" y="0">USD 589</tspan></text></g></g></g></g></svg>