<svg xmlns="http://www.w3.org/2000/svg" xmlns:xlink="http://www.w3.org/1999/xlink" width="869" height="387" viewBox="0 0 869 387"><defs><filter id="a" x="-9.304" y="-5.834" width="886.865" height="405.163" filterUnits="userSpaceOnUse"><feOffset dy="3" input="SourceAlpha"/><feGaussianBlur stdDeviation="3" result="b"/><feFlood flood-opacity="0.161"/><feComposite operator="in" in2="b"/><feComposite in="SourceGraphic"/></filter><clipPath id="d"><rect width="869" height="387"/></clipPath></defs><g id="c" clip-path="url(#d)"><rect width="869" height="387" fill="#fff"/><g transform="translate(-0.304 0.166)"><g transform="matrix(1, 0, 0, 1, 0.3, -0.17)" filter="url(#a)"><rect width="868.865" height="387.163" rx="3" transform="translate(-0.3 0.17)" fill="#fff"/></g><g transform="translate(31.513 45.018)"><text transform="translate(0 27)" fill="#1e2022" font-size="26" font-family="Poppins-Medium, Poppins" font-weight="500" letter-spacing="0.071em"><tspan x="0" y="0">Match Rate</tspan></text><g transform="translate(641.237)"><rect width="164.602" height="58.525" rx="8" fill="#4dbc9e"/><text transform="translate(21.947 34.105)" fill="#fff" font-size="24" font-family="Poppins-Regular, Poppins" letter-spacing="0.071em"><tspan x="0" y="0">April</tspan></text><path d="M0,0,9.145,7.316,18.289,0" transform="translate(124.366 25.605)" fill="none" stroke="#fff" stroke-linecap="round" stroke-linejoin="round" stroke-miterlimit="10" stroke-width="3"/></g></g><g transform="translate(31.513 138.762)"><path d="M0,96.488S69.862,66.774,100.167,66.774c22.649,0,49.61,29.715,84.41,29.715,20.265,0,65.6-61.688,89.871-61.688,21.976,0,61.862,50.27,85.7,50.27s53.36-38.251,80.567-38.251c25.723,0,71.373,26.086,96.216,26.086,23.12,0,49-26.086,71.505-26.086,30.08,0,63.926,11.144,93.728,11.144,28.61,0,104.6-70.318,104.6-70.318" transform="translate(0 12.354)" fill="none" stroke="#4dbc9e" stroke-linecap="round" stroke-miterlimit="10" stroke-width="2"/><g transform="translate(256.608 32.31)" fill="#fff" stroke="#4dbc9e" stroke-miterlimit="10" stroke-width="5"><circle cx="15.757" cy="15.757" r="15.757" stroke="none"/><circle cx="15.757" cy="15.757" r="13.257" fill="none"/></g><rect width="49.521" height="114.798" rx="24.76" transform="translate(247.604 30.059)" fill="#4cbb9d" opacity="0.199"/></g><g transform="translate(31.513 310.631)"><text transform="translate(0 26)" fill="#77838f" font-size="25" font-family="Poppins-Regular, Poppins" letter-spacing="0.071em"><tspan x="0" y="0">01</tspan></text><text transform="translate(94.909 25)" fill="#77838f" font-size="24" font-family="Poppins-Regular, Poppins" letter-spacing="0.071em"><tspan x="-15.293" y="0">02</tspan></text><text transform="translate(179.319 25)" fill="#77838f" font-size="24" font-family="Poppins-Regular, Poppins" letter-spacing="0.071em"><tspan x="-15.461" y="0">03</tspan></text><text transform="translate(267.106 24)" fill="#77838f" font-size="23" font-family="Poppins-Regular, Poppins" letter-spacing="0.071em"><tspan x="-15.277" y="0">04</tspan></text><text transform="translate(354.893 24)" fill="#77838f" font-size="23" font-family="Poppins-Regular, Poppins" letter-spacing="0.071em"><tspan x="-15.265" y="0">05</tspan></text><text transform="translate(440.428 24)" fill="#77838f" font-size="23" font-family="Poppins-Regular, Poppins" letter-spacing="0.071em"><tspan x="-15.346" y="0">06</tspan></text><text transform="translate(527.09 25)" fill="#77838f" font-size="24" font-family="Poppins-Regular, Poppins" letter-spacing="0.071em"><tspan x="-14.945" y="0">07</tspan></text><text transform="translate(613.751 24)" fill="#77838f" font-size="23" font-family="Poppins-Regular, Poppins" letter-spacing="0.071em"><tspan x="-15.3" y="0">08</tspan></text><text transform="translate(699.287 24)" fill="#77838f" font-size="23" font-family="Poppins-Regular, Poppins" letter-spacing="0.071em"><tspan x="-15.288" y="0">09</tspan></text><text transform="translate(799.325 26)" fill="#77838f" font-size="25" font-family="Poppins-Regular, Poppins" letter-spacing="0.071em"><tspan x="-25.486" y="0">10</tspan></text></g></g></g></svg>
