<svg xmlns="http://www.w3.org/2000/svg" xmlns:xlink="http://www.w3.org/1999/xlink" width="564" height="463" viewBox="0 0 564 463"><defs><filter id="a" x="-9.415" y="-5.642" width="581.975" height="480.886" filterUnits="userSpaceOnUse"><feOffset dy="3" input="SourceAlpha"/><feGaussianBlur stdDeviation="3" result="b"/><feFlood flood-opacity="0.161"/><feComposite operator="in" in2="b"/><feComposite in="SourceGraphic"/></filter><clipPath id="d"><rect width="564" height="463"/></clipPath></defs><g id="c" clip-path="url(#d)"><rect width="564" height="463" fill="#fff"/><g transform="translate(-0.415 0.358)"><g transform="translate(0 0)"><g transform="matrix(1, 0, 0, 1, 0.41, -0.36)" filter="url(#a)"><rect width="563.975" height="462.886" rx="19" transform="translate(-0.41 0.36)" fill="#fff"/></g><g transform="translate(15.961 0)"><g transform="translate(0 10)"><text transform="translate(1.454 25.642)" fill="#1e2022" font-size="20" font-family="Poppins-Medium, Poppins" font-weight="500" letter-spacing="0.05em"><tspan x="0" y="0">Day Sales Outstanding</tspan></text></g><g transform="translate(0 63.846)"><g transform="translate(0 0)"><text transform="translate(0 16)" fill="#1e2022" font-size="15" font-family="Poppins-Medium, Poppins" font-weight="500" letter-spacing="0.071em"><tspan x="0" y="0">Projection</tspan></text><text transform="translate(0 53.244)" fill="#41c174" font-size="15" font-family="Poppins-Bold, Poppins" font-weight="700" letter-spacing="0.071em"><tspan x="0" y="0">+ 28 days</tspan></text></g><g transform="translate(244.744 5.32)"><rect width="53.205" height="31.923" rx="3" transform="translate(0 0)" fill="#f2f2f2"/><text transform="translate(26.282 21.32)" fill="#77838f" font-size="15" font-family="Poppins-Medium, Poppins" font-weight="500" letter-spacing="0.071em"><tspan x="-5.318" y="0">D</tspan></text></g><g transform="translate(324.552 5.32)"><rect width="53.205" height="31.923" rx="3" transform="translate(0 0)" fill="#f2f2f2"/><text transform="translate(26.282 17.32)" fill="#77838f" font-size="11" font-family="Poppins-Medium, Poppins" font-weight="500" letter-spacing="0.071em"><tspan x="-5.495" y="0">W</tspan></text></g><g transform="translate(404.36 5.32)"><rect width="53.205" height="31.923" rx="3" transform="translate(0 0)" fill="#50c4a5"/><text transform="translate(26.282 18.32)" fill="#fff" font-size="12" font-family="Poppins-Medium, Poppins" font-weight="500" letter-spacing="0.071em"><tspan x="-5.292" y="0">M</tspan></text></g><g transform="translate(484.168 5.32)"><rect width="53.205" height="31.923" rx="3" transform="translate(0 0)" fill="#f2f2f2"/><text transform="translate(26.282 21.32)" fill="#77838f" font-size="15" font-family="Poppins-Medium, Poppins" font-weight="500" letter-spacing="0.071em"><tspan x="-4.537" y="0">Y</tspan></text></g></g><g transform="translate(79.808 158.835)"><g transform="translate(0 16.742)"><rect width="42.564" height="239.424" rx="8" transform="translate(0.001 0)" fill="#eaeaea"/><text transform="translate(0 270.385)" fill="#77838f" font-size="14" font-family="Poppins-Medium, Poppins" font-weight="500" letter-spacing="0.071em"><tspan x="0" y="0">JAN</tspan></text></g><g transform="translate(82.722 38.024)"><rect width="37.244" height="218.142" rx="8" transform="translate(2.407 0)" fill="#eaeaea"/><text transform="translate(14 244.968)" fill="#77838f" font-size="15" font-family="Poppins-Medium, Poppins" font-weight="500" letter-spacing="0.071em"><tspan x="-13.589" y="0">FEB</tspan></text></g><g transform="translate(164.936 64.627)"><rect width="42.564" height="191.539" rx="8" transform="translate(0 0)" fill="#eaeaea"/><text transform="translate(18 223.501)" fill="#77838f" font-size="15" font-family="Poppins-Medium, Poppins" font-weight="500" letter-spacing="0.071em"><tspan x="-17.654" y="0">MAR</tspan></text></g><g transform="translate(251.561 0)"><rect width="41.397" height="258.514" rx="8" fill="#ffa726"/><text transform="translate(17.824 287.128)" fill="#77838f" font-size="14" font-family="Poppins-Medium, Poppins" font-weight="500" letter-spacing="0.071em"><tspan x="-14.468" y="0">APR</tspan></text></g><g transform="translate(329.873 64.627)"><rect width="42.564" height="191.539" rx="8" transform="translate(0 0)" fill="#eaeaea"/><text transform="translate(15 221.501)" fill="#77838f" font-size="13" font-family="Poppins-Medium, Poppins" font-weight="500" letter-spacing="0.071em"><tspan x="-15.125" y="0">MAY</tspan></text></g></g></g></g></g></g></svg>